:version 1.10
:name ASF
:units
  mass 1
  length 1
  angle deg
:documentation
  ASF file generated by Kaydara
:root
  axis xyz
  order  tx ty tz rx ry rz
  position 0 0 0
  orientation 0 0 0
:bonedata
  begin
    id 1
    name RightUpLegDummy
    direction -0.718183 -0.695806 0.00816078
    length 4.904
    axis 0 0 0 xyz
  end
  begin
    id 2
    name RightUpLeg
    direction 3.53989e-006 -0.995788 0.0916897
    length 17.4976
    axis -3.49089 -0.000906621 0.000287158 xyz
    dof rx ry rz
  end
  begin
    id 3
    name RightLeg
    direction 0.00371093 -0.995096 -0.0988418
    length 16.5821
    axis 3.68512 0.0193738 -0.131023 xyz
    dof rx ry rz
  end
  begin
    id 4
    name RightFoot
    direction 0.000791514 -0.46099 0.887405
    length 3.77069
    axis 4.84075e-005 -0.120479 -0.188788 xyz
    dof rx ry rz
  end
  begin
    id 5
    name RightToes
    direction 0.00124746 -0.014064 0.9999
    length 3.85082
    axis 0.00048216 0.542163 -0.142577 xyz
    dof rx ry rz
  end
  begin
    id 6
    name SpineDummy
    direction 8.36599e-015 1 5.97571e-016
    length 4.6813
    axis 0 0 0 xyz
  end
  begin
    id 7
    name Spine
    direction -4.63632e-008 0.999988 0.00495137
    length 10.1015
    axis -0.00138897 0.000121419 3.25764e-006 xyz
    dof rx ry rz
  end
  begin
    id 8
    name Spine1
    direction 0 0 0
    length 0
    axis -0.00138896 0.000121452 2.39764e-006 xyz
    dof rx ry rz
  end
  begin
    id 9
    name HEadDummy
    direction -3.91456e-008 0.999999 0.00127422
    length 3.43865
    axis -0.00138896 0.000121452 2.39764e-006 xyz
  end
  begin
    id 10
    name HEad
    direction -0.0222688 0.980941 0.193023
    length 5.12695
    axis -0.00138895 0.000121452 2.39764e-006 xyz
    dof rx ry rz
  end
  begin
    id 11
    name LeftShoulder1Dummy
    direction 0.998891 -0.0402508 -0.0244456
    length 3.5433
    axis -0.00138896 0.000121452 2.39764e-006 xyz
  end
  begin
    id 12
    name LeftShoulder1
    direction 0.99951 -0.000327743 0.0313091
    length 4.05031
    axis -0.00138896 0.000121452 2.39764e-006 xyz
    dof rx ry rz
  end
  begin
    id 13
    name LeftArm
    direction 0.998561 -0.00100054 -0.0536182
    length 10.3537
    axis -23.1894 0.134784 0.96751 xyz
    dof rx ry rz
  end
  begin
    id 14
    name LeftForeArm
    direction 0.998903 0.00866434 0.046012
    length 8.70632
    axis -9.91835 -0.06569 -0.177792 xyz
    dof rx ry rz
  end
  begin
    id 15
    name LeftHand
    direction 0.992938 -0.0411636 0.11126
    length 5.32135
    axis -0.00960227 -0.00340091 0.185174 xyz
    dof rx ry rz
  end
  begin
    id 16
    name RightShoulderDummy
    direction -0.998891 -0.0402509 -0.0244414
    length 3.5433
    axis -0.00138896 0.000121452 2.39764e-006 xyz
  end
  begin
    id 17
    name RightShoulder
    direction -0.99951 -0.000327827 0.0313133
    length 4.05031
    axis 0.215806 0.000203644 -0.00680151 xyz
    dof rx ry rz
  end
  begin
    id 18
    name RightArm
    direction -0.998573 -0.000999583 -0.053403
    length 10.3947
    axis -23.2009 -0.134239 -0.9641 xyz
    dof rx ry rz
  end
  begin
    id 19
    name RightForeArm
    direction -0.998898 0.00868026 0.0461306
    length 8.68355
    axis -9.92322 0.0658061 0.178869 xyz
    dof rx ry rz
  end
  begin
    id 20
    name RightHand
    direction -0.992843 -0.0414603 0.112003
    length 5.28593
    axis -0.00960634 0.00330671 -0.185226 xyz
    dof rx ry rz
  end
  begin
    id 21
    name LeftUpLegDummy
    direction 0.718183 -0.695806 0.00816078
    length 4.904
    axis 0 0 0 xyz
  end
  begin
    id 22
    name LeftUpLeg
    direction -6.8115e-006 -0.995793 0.0916336
    length 17.4976
    axis -3.48766 0.00143441 -0.000523914 xyz
    dof rx ry rz
  end
  begin
    id 23
    name LeftLeg
    direction -0.00601357 -0.995091 -0.0987824
    length 16.5821
    axis 3.68177 -0.00654038 -0.00028478 xyz
    dof rx ry rz
  end
  begin
    id 24
    name LeftFoot
    direction -0.00417578 -0.460984 0.887399
    length 3.77069
    axis 1.87232e-006 4.66002e-005 -8.1837e-006 xyz
    dof rx ry rz
  end
  begin
    id 25
    name LeftToes
    direction 0.00818058 -0.00485161 0.999955
    length 3.85048
    axis 1.06246e-005 4.65855e-005 -8.18502e-006 xyz
    dof rx ry rz
  end
:hierarchy
  begin
    root RightUpLegDummy SpineDummy LeftUpLegDummy
    RightUpLegDummy RightUpLeg
    RightUpLeg RightLeg
    RightLeg RightFoot
    RightFoot RightToes
    SpineDummy Spine
    Spine Spine1
    Spine1 HEadDummy LeftShoulder1Dummy RightShoulderDummy
    HEadDummy HEad
    LeftShoulder1Dummy LeftShoulder1
    LeftShoulder1 LeftArm
    LeftArm LeftForeArm
    LeftForeArm LeftHand
    RightShoulderDummy RightShoulder
    RightShoulder RightArm
    RightArm RightForeArm
    RightForeArm RightHand
    LeftUpLegDummy LeftUpLeg
    LeftUpLeg LeftLeg
    LeftLeg LeftFoot
    LeftFoot LeftToes
  end

:SAMPLES-PER-SECOND 30
:FULLY-SPECIFIED
:DEGREES
1
root  2.65112 39.8071 -0.880889 37.261 -83.0222 -40.8972
RightUpLeg  -0.730823 -2.01951 8.73846
RightLeg  7.78013 -14.3313 -1.53765
RightFoot  -2.96009 -0.118597 1.29199
RightToes  5.82063e-011 0 -3.6325e-017
Spine  5.15345 -2.50636 2.5076
Spine1  5.55802 -3.47648 5.07354
HEad  0.637452 -11.7769 -3.33613
LeftShoulder1  2.69233 -6.04981 -21.8518
LeftArm  4.43112 4.50434 -53.4791
LeftForeArm  10.7899 -6.1986 -14.791
LeftHand  -0.541307 0.937523 14.1111
RightShoulder  1.6205 2.95911 18.6129
RightArm  -3.80639 -0.979035 55.6829
RightForeArm  26.0899 0.539808 15.2426
RightHand  -0.14461 -4.39785 -15.4986
LeftUpLeg  -7.41442 -4.52907 9.68265
LeftLeg  19.6276 5.68076 2.56726
LeftFoot  -7.85289 0.346261 -9.81092
LeftToes  3.99265e-010 -1.33173e-010 6.75004e-011
2
root  2.63878 39.803 -0.89261 37.942 -83.0374 -41.6041
RightUpLeg  -0.679209 -1.98846 8.8223
RightLeg  7.76168 -14.3109 -1.53028
RightFoot  -2.97271 -0.119039 1.29884
RightToes  5.82063e-011 0 -3.6325e-017
Spine  5.02857 -2.45062 2.48057
Spine1  5.66449 -3.41657 5.04456
HEad  0.910888 -11.8998 -3.30092
LeftShoulder1  2.68406 -5.9944 -21.9339
LeftArm  4.56427 4.46231 -53.4093
LeftForeArm  10.5354 -6.43327 -14.7189
LeftHand  -0.511597 1.14413 13.9613
RightShoulder  1.59871 2.88335 18.566
RightArm  -4.20349 -0.887153 55.6713
RightForeArm  26.2845 0.354762 15.2036
RightHand  -0.146838 -4.39271 -15.6954
LeftUpLeg  -7.39886 -4.48534 9.77181
LeftLeg  19.719 5.66963 2.57343
LeftFoot  -7.9275 0.341135 -9.83881
LeftToes  3.99265e-010 -1.33173e-010 6.75004e-011
3
root  2.61797 39.7933 -0.908652 39.23 -83.0553 -42.9317
RightUpLeg  -0.618238 -1.93953 8.97285
RightLeg  7.77359 -14.2659 -1.51962
RightFoot  -3.00493 -0.117356 1.27274
RightToes  5.82063e-011 0 -3.6325e-017
Spine  4.78617 -2.3571 2.43619
Spine1  5.85302 -3.32126 5.0214
HEad  1.40404 -12.1057 -3.18346
LeftShoulder1  2.65838 -5.90532 -21.9276
LeftArm  4.49771 4.46788 -53.4512
LeftForeArm  10.0585 -6.80519 -14.5761
LeftHand  -0.460761 1.42249 13.4246
RightShoulder  1.56737 2.77403 18.4988
RightArm  -4.74478 -0.713045 55.6418
RightForeArm  26.4544 0.0820822 15.152
RightHand  -0.145247 -4.42865 -16.1116
LeftUpLeg  -7.39598 -4.37916 9.9325
LeftLeg  19.9063 5.6391 2.583
LeftFoot  -8.06048 0.331414 -9.87101
LeftToes  3.99265e-010 -1.33173e-010 6.75004e-011
4
root  2.59652 39.7845 -0.920074 40.3803 -83.0846 -44.1315
RightUpLeg  -0.566822 -1.91369 9.08909
RightLeg  7.83318 -14.1956 -1.51237
RightFoot  -3.04672 -0.112864 1.20302
RightToes  5.82063e-011 0 -3.6325e-017
Spine  4.54377 -2.27039 2.34911
Spine1  6.03457 -3.24018 5.03441
HEad  1.88238 -12.3081 -3.04307
LeftShoulder1  2.62638 -5.82991 -21.8058
LeftArm  4.33528 4.55448 -53.6714
LeftForeArm  9.63264 -7.07911 -14.463
LeftHand  -0.421867 1.66218 13.0545
RightShoulder  1.56284 2.74061 18.5651
RightArm  -5.00782 -0.548788 55.4881
RightForeArm  26.4751 -0.0813879 15.1282
RightHand  -0.14915 -4.41699 -16.4148
LeftUpLeg  -7.36726 -4.26056 10.058
LeftLeg  20.0665 5.60745 2.58873
LeftFoot  -8.15648 0.323652 -9.86649
LeftToes  3.99265e-010 -1.33173e-010 6.75004e-011
5
root  2.57898 39.7813 -0.926796 41.0284 -83.1356 -44.8314
RightUpLeg  -0.519233 -1.90026 9.136
RightLeg  7.90151 -14.1298 -1.5233
RightFoot  -3.07846 -0.109724 1.1543
RightToes  5.82063e-011 0 -3.6325e-017
Spine  4.34374 -2.21537 2.19827
Spine1  6.18577 -3.20222 5.08872
HEad  2.26671 -12.4054 -2.99665
LeftShoulder1  2.60923 -5.77867 -21.7738
LeftArm  4.43506 4.64393 -53.8814
LeftForeArm  9.42992 -7.16698 -14.4489
LeftHand  -0.413492 1.82353 13.3491
RightShoulder  1.58943 2.80343 18.7513
RightArm  -5.09852 -0.406283 55.2422
RightForeArm  26.4665 -0.173428 15.1199
RightHand  -0.157513 -4.35462 -16.3758
LeftUpLeg  -7.28653 -4.18156 10.1008
LeftLeg  20.1174 5.60268 2.59251
LeftFoot  -8.18025 0.319353 -9.80958
LeftToes  3.99265e-010 -1.33173e-010 6.75004e-011
6
root  2.56775 39.7829 -0.929459 41.3588 -83.1931 -45.2098
RightUpLeg  -0.473594 -1.85898 9.15558
RightLeg  7.94901 -14.1055 -1.56803
RightFoot  -3.0905 -0.111216 1.17746
RightToes  5.82063e-011 0 -3.6325e-017
Spine  4.16035 -2.20584 2.0648
Spine1  6.33499 -3.20572 5.10655
HEad  2.62435 -12.3106 -3.05581
LeftShoulder1  2.61019 -5.74155 -21.9138
LeftArm  4.90291 4.70144 -53.9283
LeftForeArm  9.25256 -7.19547 -14.4957
LeftHand  -0.429764 1.79001 13.7594
RightShoulder  1.61868 2.89089 18.8728
RightArm  -5.27863 -0.248204 55.1284
RightForeArm  26.5397 -0.314729 15.1001
RightHand  -0.160326 -4.32419 -16.2131
LeftUpLeg  -7.17955 -4.13505 10.0951
LeftLeg  20.0876 5.62048 2.59633
LeftFoot  -8.17511 0.313585 -9.7345
LeftToes  3.99265e-010 -1.33173e-010 6.75004e-011
